<svg width="43" height="14" viewBox="0 0 43 14" fill="none" xmlns="http://www.w3.org/2000/svg">
<path d="M4.57031 8L1.21289 1.2793V7.30859C1.21289 7.46875 1.23828 7.58398 1.28906 7.6543C1.33984 7.7207 1.43945 7.77344 1.58789 7.8125V8H0V7.8125C0.148438 7.77344 0.248047 7.7207 0.298828 7.6543C0.349609 7.58789 0.375 7.47266 0.375 7.30859V0.693359C0.375 0.529297 0.349609 0.414062 0.298828 0.347656C0.248047 0.277344 0.148438 0.224609 0 0.189453V0.00195312H2.07422V0.189453C1.88281 0.255859 1.78711 0.337891 1.78711 0.435547C1.78711 0.482422 1.85156 0.632812 1.98047 0.886719L4.64062 6.16602L7.3125 0.839844C7.40625 0.652344 7.45312 0.519531 7.45312 0.441406C7.45312 0.339844 7.35742 0.255859 7.16602 0.189453V0.00195312H9.25781V0.189453C9.10938 0.228516 9.00977 0.28125 8.95898 0.347656C8.9082 0.414062 8.88281 0.529297 8.88281 0.693359V7.30859C8.88281 7.46875 8.9082 7.58398 8.95898 7.6543C9.00977 7.7207 9.10938 7.77344 9.25781 7.8125V8H7.58789V7.8125C7.74023 7.77344 7.83984 7.7207 7.88672 7.6543C7.9375 7.58789 7.96289 7.47266 7.96289 7.30859V1.2793L4.57031 8ZM11.2148 7.33789V2.09961C11.2148 1.93555 11.1895 1.82031 11.1387 1.75391C11.0879 1.6875 10.9883 1.63477 10.8398 1.5957V1.4375H12.4277V1.5957C12.2793 1.63477 12.1797 1.6875 12.1289 1.75391C12.0781 1.82031 12.0527 1.93555 12.0527 2.09961V7.33789C12.0527 7.49805 12.0781 7.61328 12.1289 7.68359C12.1797 7.75 12.2793 7.80273 12.4277 7.8418V8H10.8398V7.8418C10.9883 7.80273 11.0879 7.75 11.1387 7.68359C11.1895 7.61328 11.2148 7.49805 11.2148 7.33789ZM14.9121 2.46289V7.33789C14.9121 7.49805 14.9355 7.61328 14.9824 7.68359C15.0332 7.75 15.1348 7.80273 15.2871 7.8418V8H13.8398V7.8418C13.9922 7.80273 14.0918 7.75 14.1387 7.68359C14.1895 7.61328 14.2148 7.49805 14.2148 7.33789V2.09961C14.2148 1.93555 14.1895 1.82031 14.1387 1.75391C14.0879 1.6875 13.9883 1.63477 13.8398 1.5957V1.4375H15.9727V1.5957C15.7695 1.66211 15.668 1.76367 15.668 1.90039C15.668 2.01758 15.7422 2.1582 15.8906 2.32227L19.7637 6.6582V2.09961C19.7637 1.93555 19.7383 1.82031 19.6875 1.75391C19.6367 1.6875 19.5371 1.63477 19.3887 1.5957V1.4375H20.8359V1.5957C20.6875 1.63477 20.5879 1.6875 20.5371 1.75391C20.4863 1.82031 20.4609 1.93555 20.4609 2.09961V7.33789C20.4609 7.49805 20.4844 7.61328 20.5312 7.68359C20.582 7.75 20.6836 7.80273 20.8359 7.8418V8H19.1191V7.8418C19.3223 7.79102 19.4238 7.71094 19.4238 7.60156C19.4238 7.51953 19.3301 7.37305 19.1426 7.16211L14.9121 2.46289ZM27.6621 1.4375V1.53711L23.209 7.36133H27.0117C27.1758 7.36133 27.291 7.33594 27.3574 7.28516C27.4277 7.23438 27.4824 7.13281 27.5215 6.98047H27.6797V8.375H27.5215C27.4824 8.22656 27.4277 8.12695 27.3574 8.07617C27.291 8.02539 27.1758 8 27.0117 8H21.7969V7.87109L26.291 2.07617H22.5234C22.3594 2.07617 22.2441 2.10156 22.1777 2.15234C22.1113 2.20312 22.0586 2.30469 22.0195 2.45703H21.8613V1.0625H22.0195C22.0586 1.21094 22.1113 1.31055 22.1777 1.36133C22.2441 1.41211 22.3594 1.4375 22.5234 1.4375H27.6621ZM29.8535 4.92969V7.36133H33.9082C34.0723 7.36133 34.1875 7.33594 34.2539 7.28516C34.3242 7.23438 34.377 7.13281 34.4121 6.98047H34.5762V8.375H34.4121C34.377 8.22656 34.3262 8.12695 34.2598 8.07617C34.1934 8.02539 34.0781 8 33.9141 8H28.6406V7.8418C28.793 7.80273 28.8926 7.75 28.9395 7.68359C28.9902 7.61328 29.0156 7.49805 29.0156 7.33789V2.09961C29.0156 1.93555 28.9902 1.82031 28.9395 1.75391C28.8887 1.6875 28.7891 1.63477 28.6406 1.5957V1.4375H33.873C34.0371 1.4375 34.1523 1.41211 34.2188 1.36133C34.2852 1.31055 34.3379 1.21094 34.377 1.0625H34.5352V2.45703H34.377C34.3379 2.30469 34.2852 2.20312 34.2188 2.15234C34.1523 2.10156 34.0371 2.07617 33.873 2.07617H29.8535V4.29102H32.4141C32.5781 4.29102 32.6934 4.26562 32.7598 4.21484C32.8262 4.16406 32.8789 4.06445 32.918 3.91602H33.0762V5.31055H32.918C32.8789 5.1582 32.8242 5.05664 32.7539 5.00586C32.6875 4.95508 32.5742 4.92969 32.4141 4.92969H29.8535ZM36.873 2.46289V7.33789C36.873 7.49805 36.8965 7.61328 36.9434 7.68359C36.9941 7.75 37.0957 7.80273 37.248 7.8418V8H35.8008V7.8418C35.9531 7.80273 36.0527 7.75 36.0996 7.68359C36.1504 7.61328 36.1758 7.49805 36.1758 7.33789V2.09961C36.1758 1.93555 36.1504 1.82031 36.0996 1.75391C36.0488 1.6875 35.9492 1.63477 35.8008 1.5957V1.4375H37.9336V1.5957C37.7305 1.66211 37.6289 1.76367 37.6289 1.90039C37.6289 2.01758 37.7031 2.1582 37.8516 2.32227L41.7246 6.6582V2.09961C41.7246 1.93555 41.6992 1.82031 41.6484 1.75391C41.5977 1.6875 41.498 1.63477 41.3496 1.5957V1.4375H42.7969V1.5957C42.6484 1.63477 42.5488 1.6875 42.498 1.75391C42.4473 1.82031 42.4219 1.93555 42.4219 2.09961V7.33789C42.4219 7.49805 42.4453 7.61328 42.4922 7.68359C42.543 7.75 42.6445 7.80273 42.7969 7.8418V8H41.0801V7.8418C41.2832 7.79102 41.3848 7.71094 41.3848 7.60156C41.3848 7.51953 41.291 7.37305 41.1035 7.16211L36.873 2.46289ZM7.65576 11.3179V11.9478H7.59717C7.58415 11.8875 7.56868 11.8468 7.55078 11.8257C7.53288 11.8029 7.50521 11.7915 7.46777 11.7915H6.84766C6.81185 11.7915 6.78418 11.8029 6.76465 11.8257C6.74674 11.8468 6.73128 11.8875 6.71826 11.9478H6.66211V11.3179H6.71826C6.73128 11.3781 6.74674 11.4196 6.76465 11.4424C6.78418 11.4635 6.81185 11.4741 6.84766 11.4741H7.46777C7.50358 11.4741 7.53125 11.4627 7.55078 11.4399C7.57031 11.4172 7.58577 11.3765 7.59717 11.3179H7.65576ZM8.45654 11.7207V12.7339H10.146C10.2144 12.7339 10.2624 12.7233 10.29 12.7021C10.3193 12.681 10.3413 12.6387 10.356 12.5752H10.4243V13.1562H10.356C10.3413 13.0944 10.3201 13.0529 10.2925 13.0317C10.2648 13.0106 10.2168 13 10.1484 13H7.95117V12.9341C8.01465 12.9178 8.05615 12.8958 8.07568 12.8682C8.09684 12.8389 8.10742 12.7909 8.10742 12.7241V10.5415C8.10742 10.4731 8.09684 10.4251 8.07568 10.3975C8.05452 10.3698 8.01302 10.3478 7.95117 10.3315V10.2656H10.1313C10.1997 10.2656 10.2477 10.255 10.2754 10.2339C10.3031 10.2127 10.325 10.1712 10.3413 10.1094H10.4072V10.6904H10.3413C10.325 10.627 10.3031 10.5846 10.2754 10.5635C10.2477 10.5423 10.1997 10.5317 10.1313 10.5317H8.45654V11.4546H9.52344C9.5918 11.4546 9.63981 11.444 9.66748 11.4229C9.69515 11.4017 9.71712 11.3602 9.7334 11.2983H9.79932V11.8794H9.7334C9.71712 11.8159 9.69434 11.7736 9.66504 11.7524C9.63737 11.7313 9.59017 11.7207 9.52344 11.7207H8.45654ZM12.2822 12.6118L13.1587 10.6074C13.1831 10.5537 13.1953 10.5073 13.1953 10.4683C13.1953 10.3918 13.1473 10.3462 13.0513 10.3315V10.2656H13.73V10.3315C13.66 10.3511 13.6087 10.3804 13.5762 10.4194C13.5452 10.4585 13.498 10.5505 13.4346 10.6953L12.5996 12.5972C12.5605 12.6867 12.541 12.7542 12.541 12.7998C12.541 12.8714 12.5866 12.9162 12.6777 12.9341V13H11.833V12.9341C11.9242 12.9146 11.9697 12.869 11.9697 12.7974C11.9697 12.7534 11.9494 12.6867 11.9087 12.5972L11.0493 10.6953C10.9826 10.5472 10.9338 10.4544 10.9028 10.417C10.8719 10.3796 10.8215 10.3511 10.7515 10.3315V10.2656H11.5083V10.3315C11.4123 10.3478 11.3643 10.3918 11.3643 10.4634C11.3643 10.5041 11.3765 10.5521 11.4009 10.6074L12.2822 12.6118ZM17.8901 10.4072L17.6216 10.9395L17.563 10.9102C17.5711 10.863 17.5752 10.8304 17.5752 10.8125C17.5752 10.7734 17.5223 10.7262 17.4165 10.6709C17.1919 10.5505 16.9185 10.4902 16.5962 10.4902C16.3374 10.4902 16.1177 10.5382 15.937 10.6343C15.7563 10.7319 15.666 10.8678 15.666 11.042C15.666 11.1201 15.6888 11.1909 15.7344 11.2544C15.7799 11.3162 15.841 11.3602 15.9175 11.3862C15.994 11.4123 16.077 11.4294 16.1665 11.4375C16.256 11.4456 16.4481 11.4554 16.7427 11.4668C16.9884 11.4749 17.174 11.4904 17.2993 11.5132C17.4263 11.536 17.5345 11.5726 17.624 11.623C17.7201 11.6768 17.7957 11.7549 17.8511 11.8574C17.9064 11.9583 17.9341 12.069 17.9341 12.1895C17.9341 12.4417 17.8307 12.6427 17.624 12.7925C17.3766 12.9699 17.0479 13.0586 16.6377 13.0586C16.4359 13.0586 16.2235 13.0277 16.0005 12.9658C15.7791 12.904 15.5732 12.8193 15.3828 12.7119C15.3568 12.6956 15.3372 12.6875 15.3242 12.6875C15.2998 12.6875 15.2632 12.716 15.2144 12.7729L15.1582 12.7363L15.4683 12.2163L15.5269 12.2505C15.522 12.27 15.5187 12.283 15.5171 12.2896C15.509 12.3156 15.5049 12.3368 15.5049 12.353C15.5049 12.3986 15.5879 12.4653 15.7539 12.5532C16.0339 12.7013 16.3244 12.7754 16.6255 12.7754C16.9006 12.7754 17.1292 12.7282 17.3115 12.6338C17.3994 12.5882 17.4694 12.5272 17.5215 12.4507C17.5736 12.3726 17.5996 12.2912 17.5996 12.2065C17.5996 12.1284 17.5776 12.0584 17.5337 11.9966C17.4897 11.9347 17.432 11.8908 17.3604 11.8647C17.2936 11.842 17.2188 11.8257 17.1357 11.8159C17.0544 11.8062 16.8997 11.7972 16.6719 11.7891C16.4033 11.7777 16.2113 11.7646 16.0957 11.75C15.9801 11.7337 15.8711 11.7069 15.7686 11.6694C15.6383 11.6222 15.5334 11.5457 15.4536 11.4399C15.3739 11.3309 15.334 11.2023 15.334 11.0542C15.334 10.7922 15.4528 10.5863 15.6904 10.4365C15.9329 10.2835 16.2414 10.207 16.6157 10.207C16.9575 10.207 17.3009 10.2835 17.646 10.4365C17.6981 10.4577 17.7282 10.4683 17.7363 10.4683C17.7624 10.4683 17.7933 10.4382 17.8291 10.3779L17.8901 10.4072ZM18.8911 11.7207V12.7339H20.5806C20.6489 12.7339 20.6969 12.7233 20.7246 12.7021C20.7539 12.681 20.7759 12.6387 20.7905 12.5752H20.8589V13.1562H20.7905C20.7759 13.0944 20.7547 13.0529 20.7271 13.0317C20.6994 13.0106 20.6514 13 20.583 13H18.3857V12.9341C18.4492 12.9178 18.4907 12.8958 18.5103 12.8682C18.5314 12.8389 18.542 12.7909 18.542 12.7241V10.5415C18.542 10.4731 18.5314 10.4251 18.5103 10.3975C18.4891 10.3698 18.4476 10.3478 18.3857 10.3315V10.2656H20.5659C20.6343 10.2656 20.6823 10.255 20.71 10.2339C20.7376 10.2127 20.7596 10.1712 20.7759 10.1094H20.8418V10.6904H20.7759C20.7596 10.627 20.7376 10.5846 20.71 10.5635C20.6823 10.5423 20.6343 10.5317 20.5659 10.5317H18.8911V11.4546H19.958C20.0264 11.4546 20.0744 11.444 20.1021 11.4229C20.1297 11.4017 20.1517 11.3602 20.168 11.2983H20.2339V11.8794H20.168C20.1517 11.8159 20.1289 11.7736 20.0996 11.7524C20.0719 11.7313 20.0247 11.7207 19.958 11.7207H18.8911ZM21.8745 11.7622V12.7241C21.8745 12.7909 21.8851 12.8389 21.9062 12.8682C21.9274 12.8958 21.9689 12.9178 22.0308 12.9341V13H21.3691V12.9341C21.4326 12.9178 21.4741 12.8958 21.4937 12.8682C21.5148 12.8389 21.5254 12.7909 21.5254 12.7241V10.5415C21.5254 10.4731 21.5148 10.4251 21.4937 10.3975C21.4725 10.3698 21.431 10.3478 21.3691 10.3315V10.2656H22.9927C23.1766 10.2656 23.3263 10.2786 23.4419 10.3047C23.5591 10.3307 23.6608 10.3747 23.7471 10.4365C23.9359 10.57 24.0303 10.7653 24.0303 11.0225C24.0303 11.2324 23.9644 11.3984 23.8325 11.5205C23.7007 11.641 23.507 11.7134 23.2515 11.7378L23.9375 12.8267C23.9619 12.8657 23.9855 12.8926 24.0083 12.9072C24.0327 12.9202 24.075 12.9308 24.1353 12.939V13H23.459V12.9341C23.5225 12.9211 23.5542 12.9007 23.5542 12.873C23.5542 12.8535 23.5355 12.8145 23.498 12.7559L22.8682 11.7622H21.8745ZM21.8745 11.4961H22.9146C23.0822 11.4961 23.2075 11.4904 23.2905 11.479C23.3752 11.466 23.4468 11.4432 23.5054 11.4106C23.634 11.339 23.6982 11.2145 23.6982 11.0371C23.6982 10.8662 23.638 10.7376 23.5176 10.6514C23.4069 10.5716 23.2189 10.5317 22.9536 10.5317H21.8745V11.4961ZM25.7393 12.6118L26.6157 10.6074C26.6401 10.5537 26.6523 10.5073 26.6523 10.4683C26.6523 10.3918 26.6043 10.3462 26.5083 10.3315V10.2656H27.187V10.3315C27.117 10.3511 27.0658 10.3804 27.0332 10.4194C27.0023 10.4585 26.9551 10.5505 26.8916 10.6953L26.0566 12.5972C26.0176 12.6867 25.998 12.7542 25.998 12.7998C25.998 12.8714 26.0436 12.9162 26.1348 12.9341V13H25.29V12.9341C25.3812 12.9146 25.4268 12.869 25.4268 12.7974C25.4268 12.7534 25.4064 12.6867 25.3657 12.5972L24.5063 10.6953C24.4396 10.5472 24.3908 10.4544 24.3599 10.417C24.3289 10.3796 24.2785 10.3511 24.2085 10.3315V10.2656H24.9653V10.3315C24.8693 10.3478 24.8213 10.3918 24.8213 10.4634C24.8213 10.5041 24.8335 10.5521 24.8579 10.6074L25.7393 12.6118ZM27.6533 12.7241V10.5415C27.6533 10.4731 27.6427 10.4251 27.6216 10.3975C27.6004 10.3698 27.5589 10.3478 27.4971 10.3315V10.2656H28.1587V10.3315C28.0968 10.3478 28.0553 10.3698 28.0342 10.3975C28.013 10.4251 28.0024 10.4731 28.0024 10.5415V12.7241C28.0024 12.7909 28.013 12.8389 28.0342 12.8682C28.0553 12.8958 28.0968 12.9178 28.1587 12.9341V13H27.4971V12.9341C27.5589 12.9178 27.6004 12.8958 27.6216 12.8682C27.6427 12.8389 27.6533 12.7909 27.6533 12.7241ZM31.6694 10.4683L31.3643 10.9932L31.3081 10.9565C31.3195 10.9142 31.3252 10.8817 31.3252 10.8589C31.3252 10.8247 31.2926 10.7865 31.2275 10.7441C30.9655 10.5749 30.6579 10.4902 30.3047 10.4902C29.9596 10.4902 29.6707 10.5854 29.438 10.7759C29.1776 10.9891 29.0474 11.2682 29.0474 11.6133C29.0474 11.9876 29.1914 12.2863 29.4795 12.5093C29.7057 12.6867 29.9759 12.7754 30.29 12.7754C30.6449 12.7754 30.9533 12.672 31.2153 12.4653C31.3179 12.384 31.3691 12.3245 31.3691 12.2871C31.3691 12.2594 31.3553 12.2179 31.3276 12.1626L31.3838 12.126L31.7646 12.6143L31.7134 12.6582C31.6564 12.6077 31.6157 12.5825 31.5913 12.5825C31.5783 12.5825 31.5588 12.5931 31.5327 12.6143C31.3325 12.7705 31.1315 12.8836 30.9297 12.9536C30.7295 13.0236 30.5049 13.0586 30.2559 13.0586C29.8213 13.0586 29.4632 12.9414 29.1816 12.707C29.04 12.5898 28.9269 12.4507 28.8423 12.2896C28.7349 12.0845 28.6812 11.8639 28.6812 11.6279C28.6812 11.1803 28.8561 10.8198 29.2061 10.5464C29.4974 10.3201 29.8636 10.207 30.3047 10.207C30.6953 10.207 31.0688 10.3031 31.4253 10.4951C31.4562 10.5114 31.4798 10.5195 31.4961 10.5195C31.5303 10.5195 31.5685 10.4919 31.6108 10.4365L31.6694 10.4683ZM32.7778 11.7207V12.7339H34.4673C34.5356 12.7339 34.5837 12.7233 34.6113 12.7021C34.6406 12.681 34.6626 12.6387 34.6772 12.5752H34.7456V13.1562H34.6772C34.6626 13.0944 34.6414 13.0529 34.6138 13.0317C34.5861 13.0106 34.5381 13 34.4697 13H32.2725V12.9341C32.3359 12.9178 32.3774 12.8958 32.397 12.8682C32.4181 12.8389 32.4287 12.7909 32.4287 12.7241V10.5415C32.4287 10.4731 32.4181 10.4251 32.397 10.3975C32.3758 10.3698 32.3343 10.3478 32.2725 10.3315V10.2656H34.4526C34.521 10.2656 34.569 10.255 34.5967 10.2339C34.6243 10.2127 34.6463 10.1712 34.6626 10.1094H34.7285V10.6904H34.6626C34.6463 10.627 34.6243 10.5846 34.5967 10.5635C34.569 10.5423 34.521 10.5317 34.4526 10.5317H32.7778V11.4546H33.8447C33.9131 11.4546 33.9611 11.444 33.9888 11.4229C34.0164 11.4017 34.0384 11.3602 34.0547 11.2983H34.1206V11.8794H34.0547C34.0384 11.8159 34.0156 11.7736 33.9863 11.7524C33.9587 11.7313 33.9115 11.7207 33.8447 11.7207H32.7778ZM35.9565 11.3179V11.9478H35.8979C35.8849 11.8875 35.8695 11.8468 35.8516 11.8257C35.8337 11.8029 35.806 11.7915 35.7686 11.7915H35.1484C35.1126 11.7915 35.085 11.8029 35.0654 11.8257C35.0475 11.8468 35.0321 11.8875 35.019 11.9478H34.9629V11.3179H35.019C35.0321 11.3781 35.0475 11.4196 35.0654 11.4424C35.085 11.4635 35.1126 11.4741 35.1484 11.4741H35.7686C35.8044 11.4741 35.832 11.4627 35.8516 11.4399C35.8711 11.4172 35.8866 11.3765 35.8979 11.3179H35.9565Z" fill="black"/>
</svg>
