<svg width="43" height="9" viewBox="0 0 43 9" fill="none" xmlns="http://www.w3.org/2000/svg">
<path d="M4.54777 8.07256C4.48377 7.88856 4.40777 7.70456 4.31977 7.52056C4.23177 7.32856 4.11177 7.06456 3.95977 6.72856L1.66777 1.62856H1.64377L1.40377 6.77656C1.39577 7.07256 1.46377 7.29656 1.60777 7.44856C1.75177 7.60056 2.06777 7.68456 2.55577 7.70056V7.97656H-0.000230432V7.70056C0.31177 7.68456 0.52777 7.60056 0.64777 7.44856C0.77577 7.29656 0.84377 7.07256 0.85177 6.77656L1.12777 1.19656C1.14377 0.916562 1.12377 0.716562 1.06777 0.596562C1.01977 0.468562 0.91977 0.384562 0.76777 0.344562C0.61577 0.304562 0.38777 0.280562 0.0837696 0.272562V-0.00343776H2.12377C2.18777 0.204562 2.25577 0.400562 2.32777 0.584562C2.40777 0.768562 2.49977 0.972562 2.60377 1.19656L5.02777 6.52456H5.05177L7.28377 1.19656C7.37177 0.988562 7.44777 0.788562 7.51177 0.596562C7.58377 0.396562 7.64777 0.196562 7.70377 -0.00343776H9.59977V0.272562C9.37577 0.280562 9.19977 0.304562 9.07177 0.344562C8.94377 0.384562 8.85577 0.468562 8.80777 0.596562C8.76777 0.716562 8.75177 0.916562 8.75977 1.19656L9.01177 6.77656C9.02777 7.04856 9.06377 7.24856 9.11977 7.37656C9.17577 7.50456 9.27577 7.58856 9.41977 7.62856C9.57177 7.66056 9.77977 7.68456 10.0438 7.70056V7.97656H7.25977V7.70056C7.45177 7.68456 7.60377 7.66056 7.71577 7.62856C7.82777 7.58856 7.90377 7.50456 7.94377 7.37656C7.99177 7.24856 8.00777 7.04856 7.99177 6.77656L7.76377 1.54456H7.73977L5.54377 6.72856C5.40777 7.06456 5.29977 7.32856 5.21977 7.52056C5.14777 7.70456 5.08777 7.88856 5.03977 8.07256H4.54777ZM13.0286 6.77656C13.0286 7.04856 13.0566 7.24856 13.1126 7.37656C13.1686 7.50456 13.2686 7.58856 13.4126 7.62856C13.5646 7.66856 13.7766 7.69256 14.0486 7.70056V7.97656H11.3366V7.70056C11.5126 7.69256 11.6526 7.66856 11.7566 7.62856C11.8606 7.58856 11.9366 7.50456 11.9846 7.37656C12.0326 7.24856 12.0566 7.04856 12.0566 6.77656V2.87656C12.0566 2.59656 12.0286 2.39656 11.9726 2.27656C11.9166 2.14856 11.8166 2.06456 11.6726 2.02456C11.5286 1.98456 11.3166 1.96056 11.0366 1.95256V1.67656H13.7486V1.95256C13.5726 1.96056 13.4326 1.98456 13.3286 2.02456C13.2246 2.06456 13.1486 2.14856 13.1006 2.27656C13.0526 2.39656 13.0286 2.59656 13.0286 2.87656V6.77656ZM20.9464 8.07256C20.8264 7.88856 20.6944 7.70456 20.5504 7.52056C20.4144 7.33656 20.2184 7.11256 19.9624 6.84856L16.6864 3.41656H16.6624V6.77656C16.6624 7.07256 16.7344 7.29656 16.8784 7.44856C17.0304 7.60056 17.3424 7.68456 17.8144 7.70056V7.97656H15.4024V7.70056C15.6664 7.68456 15.8504 7.60056 15.9544 7.44856C16.0664 7.29656 16.1224 7.07256 16.1224 6.77656V2.87656C16.1224 2.56456 16.0344 2.33656 15.8584 2.19256C15.6904 2.04856 15.4384 1.96856 15.1024 1.95256V1.67656H16.6144C16.7344 1.87656 16.8624 2.06856 16.9984 2.25256C17.1344 2.42856 17.2904 2.60856 17.4664 2.79256L20.7784 6.23656H20.8024V2.87656C20.8024 2.58056 20.7344 2.35656 20.5984 2.20456C20.4704 2.05256 20.1984 1.96856 19.7824 1.95256V1.67656H22.0744V1.95256C21.8104 1.96856 21.6224 2.05256 21.5104 2.20456C21.4064 2.35656 21.3544 2.58056 21.3544 2.87656V6.77656C21.3544 7.00056 21.3544 7.21656 21.3544 7.42456C21.3624 7.62456 21.3704 7.84056 21.3784 8.07256H20.9464ZM23.0226 7.97656V7.70056C23.1186 7.61256 23.2106 7.51256 23.2986 7.40056C23.3946 7.28056 23.4746 7.17256 23.5386 7.07656L26.7786 2.13256V2.10856L24.8946 2.19256C24.5746 2.20056 24.3346 2.26456 24.1746 2.38456C24.0146 2.49656 23.9026 2.65256 23.8386 2.85256C23.7826 3.05256 23.7426 3.28456 23.7186 3.54856H23.4426V1.67656H28.1586V1.95256C28.0706 2.03256 27.9866 2.12856 27.9066 2.24056C27.8266 2.34456 27.7426 2.45656 27.6546 2.57656L24.4026 7.52056V7.54456L26.4906 7.44856C26.8906 7.43256 27.2026 7.36456 27.4266 7.24456C27.6586 7.11656 27.8266 6.95656 27.9306 6.76456C28.0346 6.56456 28.0946 6.34856 28.1106 6.11656H28.3866L28.2906 7.97656H23.0226ZM29.6987 7.97656V7.70056C29.8747 7.69256 30.0147 7.66856 30.1187 7.62856C30.2227 7.58856 30.2987 7.50456 30.3467 7.37656C30.3947 7.24856 30.4187 7.04856 30.4187 6.77656V2.87656C30.4187 2.59656 30.3907 2.39656 30.3347 2.27656C30.2787 2.14856 30.1787 2.06456 30.0347 2.02456C29.8907 1.98456 29.6787 1.96056 29.3987 1.95256V1.67656H34.2347V3.12856H33.9587C33.9507 2.90456 33.9107 2.72056 33.8387 2.57656C33.7667 2.42456 33.6347 2.30856 33.4427 2.22856C33.2587 2.14856 32.9827 2.10856 32.6147 2.10856H31.9187C31.7507 2.10856 31.6187 2.14856 31.5227 2.22856C31.4347 2.30856 31.3907 2.52456 31.3907 2.87656V4.40056C31.4547 4.35256 31.5307 4.32056 31.6187 4.30456C31.7147 4.28856 31.8267 4.28056 31.9547 4.28056H32.9507C33.1827 4.28056 33.3587 4.23256 33.4787 4.13656C33.6067 4.04056 33.6747 3.86056 33.6827 3.59656H33.9587V5.39656H33.6827C33.6747 5.13256 33.6187 4.95256 33.5147 4.85656C33.4187 4.76056 33.2307 4.71256 32.9507 4.71256H31.9787C31.7627 4.71256 31.6107 4.74856 31.5227 4.82056C31.4347 4.89256 31.3907 5.03256 31.3907 5.24056V6.77656C31.3907 7.12056 31.4507 7.33656 31.5707 7.42456C31.6987 7.50456 31.9427 7.54456 32.3027 7.54456H33.1547C33.6747 7.54456 34.0427 7.40456 34.2587 7.12456C34.4747 6.84456 34.5987 6.50856 34.6307 6.11656H34.9067L34.8107 7.97656H29.6987ZM41.6886 8.07256C41.5686 7.88856 41.4366 7.70456 41.2926 7.52056C41.1566 7.33656 40.9606 7.11256 40.7046 6.84856L37.4286 3.41656H37.4046V6.77656C37.4046 7.07256 37.4766 7.29656 37.6206 7.44856C37.7726 7.60056 38.0846 7.68456 38.5566 7.70056V7.97656H36.1446V7.70056C36.4086 7.68456 36.5926 7.60056 36.6966 7.44856C36.8086 7.29656 36.8646 7.07256 36.8646 6.77656V2.87656C36.8646 2.56456 36.7766 2.33656 36.6006 2.19256C36.4326 2.04856 36.1806 1.96856 35.8446 1.95256V1.67656H37.3566C37.4766 1.87656 37.6046 2.06856 37.7406 2.25256C37.8766 2.42856 38.0326 2.60856 38.2086 2.79256L41.5206 6.23656H41.5446V2.87656C41.5446 2.58056 41.4766 2.35656 41.3406 2.20456C41.2126 2.05256 40.9406 1.96856 40.5246 1.95256V1.67656H42.8166V1.95256C42.5526 1.96856 42.3646 2.05256 42.2526 2.20456C42.1486 2.35656 42.0966 2.58056 42.0966 2.87656V6.77656C42.0966 7.00056 42.0966 7.21656 42.0966 7.42456C42.1046 7.62456 42.1126 7.84056 42.1206 8.07256H41.6886Z" fill="black"/>
</svg>
